<?xml version="1.0" standalone="no"?>
<!DOCTYPE svg PUBLIC "-//W3C//DTD SVG 20010904//EN"
 "http://www.w3.org/TR/2001/REC-SVG-20010904/DTD/svg10.dtd">
<svg version="1.0" xmlns="http://www.w3.org/2000/svg"
 width="626.000000pt" height="626.000000pt" viewBox="0 0 626.000000 626.000000"
 preserveAspectRatio="xMidYMid meet">
<metadata>
Created by potrace 1.11, written by Peter Selinger 2001-2013
</metadata>
<g transform="translate(0.000000,626.000000) scale(0.100000,-0.100000)"
fill="#000000" stroke="none">
<path d="M0 3130 l0 -3130 3130 0 3130 0 0 3130 0 3130 -3130 0 -3130 0 0
-3130z m3329 1821 c132 -165 237 -302 234 -305 -4 -3 -2 -6 4 -6 5 0 10 -7 10
-15 0 -10 -4 -12 -12 -5 -9 8 -14 6 -19 -5 -6 -18 -26 -11 -26 8 0 7 4 6 10
-3 5 -8 10 -10 11 -5 0 6 2 17 4 26 1 9 -3 16 -11 16 -7 0 -12 -4 -11 -9 1 -5
-16 -19 -37 -32 -70 -39 -93 -79 -111 -191 -16 -94 -34 -147 -53 -159 -10 -6
-53 138 -111 369 -22 88 -65 253 -94 366 -49 186 -61 269 -37 254 5 -3 117
-140 249 -304z m-460 99 l34 -17 -2 -89 c-1 -49 -6 -93 -11 -98 -5 -5 -7 -23
-4 -40 2 -17 2 -24 -2 -16 -12 33 -30 66 -46 90 -9 14 -19 37 -22 52 -5 33
-30 71 -39 61 -9 -8 -9 50 -1 71 7 18 38 14 93 -14z m-82 -92 c-3 -8 -6 -5 -6
6 -1 11 2 17 5 13 3 -3 4 -12 1 -19z m1222 -702 l9 -35 -25 16 c-19 13 -26 14
-32 4 -16 -25 -21 18 -9 76 l12 57 17 -42 c10 -22 22 -57 28 -76z m320 -1092
c-15 -59 -29 -108 -31 -110 -2 -1 -18 7 -37 18 -28 18 -30 23 -16 30 13 8 14
12 3 26 -10 12 -10 14 0 8 7 -4 12 -2 12 8 0 8 5 27 11 43 6 15 9 29 7 30 -2
1 6 9 17 17 11 9 16 16 10 16 -16 1 18 20 36 20 13 0 12 -15 -12 -106z m-1332
-1604 c7 -20 18 -30 32 -30 28 0 36 -17 11 -25 -11 -3 -20 -9 -20 -13 0 -4 29
-28 63 -54 74 -57 146 -120 132 -116 -16 3 -58 -13 -84 -33 -13 -11 -30 -19
-38 -19 -8 0 -36 -10 -62 -23 -75 -37 -83 -30 -80 67 4 122 1 126 -188 181 -6
2 -16 12 -22 22 -9 18 -5 19 79 15 111 -5 136 0 144 33 8 33 19 32 33 -5z"/>
</g>
</svg>
