<?xml version="1.0" encoding="iso-8859-1"?>
<!-- Generator: Adobe Illustrator 21.0.0, SVG Export Plug-In . SVG Version: 6.00 Build 0)  -->
<svg version="1.1" id="Capa_1" xmlns="http://www.w3.org/2000/svg" xmlns:xlink="http://www.w3.org/1999/xlink" x="0px" y="0px"
	 viewBox="0 0 512 512" style="enable-background:new 0 0 512 512;" xml:space="preserve">
<path style="fill:#9B8CC8;" d="M456.253,382.533L349.83,5.96C348.834,2.434,345.617,0,341.953,0H178.226
	c-3.603,0-6.782,2.356-7.831,5.803L55.785,382.376c-1.576,5.177,2.428,10.57,7.831,10.57h98.236c3.523,0,6.651-2.255,7.766-5.597
	l30.88-92.639h118.69l23.009,92.035c0.912,3.644,4.185,6.201,7.942,6.201h98.236C453.713,392.946,457.707,387.677,456.253,382.533z
	 M290.537,188.286h-60.894l20.466-81.864h19.962L290.537,188.286z"/>
<path style="fill:#8A79BF;" d="M88.522,382.376L203.131,5.803C204.18,2.356,207.36,0,210.963,0h-32.737
	c-3.603,0-6.782,2.356-7.831,5.803L55.785,382.376c-1.576,5.177,2.428,10.57,7.831,10.57h32.737
	C90.951,392.946,86.947,387.553,88.522,382.376z"/>
<path style="fill:#BFE666;" d="M452.876,453.743l-38.625-37.418c-1.624-1.573-4.215-1.532-5.788,0.092l-11.391,11.76
	c-1.573,1.624-1.532,4.215,0.092,5.788l17.902,17.342H102.511l17.256-17.795c1.574-1.623,1.534-4.214-0.089-5.788l-11.755-11.397
	c-1.623-1.574-4.214-1.534-5.788,0.089L63.691,456.06c-4.657,4.803-4.534,12.713,0.271,17.368l38.625,37.418
	c1.624,1.573,4.215,1.532,5.788-0.092l11.391-11.76c1.573-1.624,1.532-4.215-0.092-5.788l-17.902-17.342h312.553l-17.256,17.795
	c-1.574,1.623-1.534,4.214,0.089,5.788l11.755,11.397c1.623,1.574,4.214,1.534,5.788-0.089l38.444-39.646
	C457.805,466.308,457.682,458.398,452.876,453.743z"/>
<g>
</g>
<g>
</g>
<g>
</g>
<g>
</g>
<g>
</g>
<g>
</g>
<g>
</g>
<g>
</g>
<g>
</g>
<g>
</g>
<g>
</g>
<g>
</g>
<g>
</g>
<g>
</g>
<g>
</g>
</svg>
