<?xml version="1.0" encoding="iso-8859-1"?>
<!-- Generator: Adobe Illustrator 19.0.0, SVG Export Plug-In . SVG Version: 6.00 Build 0)  -->
<svg version="1.1" id="Layer_1" xmlns="http://www.w3.org/2000/svg" xmlns:xlink="http://www.w3.org/1999/xlink" x="0px" y="0px"
	 viewBox="0 0 512 512" style="enable-background:new 0 0 512 512;" xml:space="preserve">
<path style="fill:#EFEFEF;" d="M256,450.783H16.696C7.475,450.783,0,443.307,0,434.087v-99.818c0-9.22,7.475-16.696,16.696-16.696
	H256c9.22,0,16.696,7.475,16.696,16.696v99.818C272.696,443.307,265.22,450.783,256,450.783z"/>
<path style="fill:#C5D8DF;" d="M495.304,450.783H256V317.574h239.304c9.22,0,16.696,7.475,16.696,16.696v99.818
	C512,443.307,504.525,450.783,495.304,450.783z"/>
<path style="fill:#1C3D66;" d="M512,350.965H0V77.913c0-9.22,7.475-16.696,16.696-16.696h478.609c9.22,0,16.696,7.475,16.696,16.696
	V350.965z"/>
<path style="fill:#163457;" d="M495.304,61.217H255.992v289.747H512V77.913C512,68.693,504.525,61.217,495.304,61.217z"/>
<path style="fill:#B7E183;" d="M311.716,219.457h-8.885l3.47-26.73h5.415c9.22,0,16.696-7.475,16.696-16.696
	s-7.475-16.696-16.696-16.696h-1.079l0.884-6.809c1.188-9.144-5.264-17.519-14.406-18.707c-9.157-1.195-17.519,5.264-18.707,14.406
	l-1.443,11.108h-26.449l0.884-6.808c1.188-9.144-5.262-17.519-14.406-18.707c-9.139-1.19-17.519,5.262-18.707,14.406l-1.443,11.108
	h-16.56c-9.22,0-16.696,7.475-16.696,16.696s7.475,16.696,16.696,16.696h12.223l-3.47,26.73h-8.753
	c-9.22,0-16.696,7.475-16.696,16.696c0,9.22,7.475,16.696,16.696,16.696h4.417l-0.884,6.808
	c-1.188,9.144,5.262,17.519,14.406,18.707c9.111,1.188,17.516-5.236,18.707-14.406l1.443-11.108h26.449l-0.884,6.809
	c-1.188,9.144,5.264,17.519,14.406,18.707c9.116,1.186,17.516-5.239,18.707-14.406l1.443-11.108h13.222
	c9.22,0,16.696-7.475,16.696-16.696C328.411,226.932,320.936,219.457,311.716,219.457z M242.709,219.457l3.47-26.73h26.448
	l-3.47,26.73H242.709z"/>
<path style="fill:#71DE56;" d="M311.716,219.457h-8.885l3.47-26.73h5.415c9.22,0,16.696-7.475,16.696-16.696
	s-7.475-16.696-16.696-16.696h-1.079l0.884-6.809c1.188-9.144-5.264-17.519-14.406-18.707c-9.157-1.195-17.519,5.264-18.707,14.406
	l-1.443,11.108h-20.973v33.391h16.637l-3.47,26.73h-13.166v33.391h8.83l-0.884,6.808c-1.188,9.144,5.264,17.519,14.406,18.707
	c9.116,1.186,17.516-5.239,18.707-14.406l1.443-11.108h13.222c9.22,0,16.696-7.475,16.696-16.696
	C328.411,226.932,320.936,219.457,311.716,219.457z"/>
<g>
</g>
<g>
</g>
<g>
</g>
<g>
</g>
<g>
</g>
<g>
</g>
<g>
</g>
<g>
</g>
<g>
</g>
<g>
</g>
<g>
</g>
<g>
</g>
<g>
</g>
<g>
</g>
<g>
</g>
</svg>
